<!DOCTYPE svg PUBLIC "-//W3C//DTD SVG 1.1//EN" "http://www.w3.org/Graphics/SVG/1.1/DTD/svg11.dtd">

<!-- Uploaded to: SVG Repo, www.svgrepo.com, Transformed by: SVG Repo Mixer Tools -->
<svg fill="#000000" width="24px" height="24px" viewBox="0 0 24 24" id="settings-alt-3" data-name="Flat Line" xmlns="http://www.w3.org/2000/svg" class="icon flat-line">

<g id="SVGRepo_bgCarrier" stroke-width="0"/>

<g id="SVGRepo_tracerCarrier" stroke-linecap="round" stroke-linejoin="round"/>

<g id="SVGRepo_iconCarrier">

<path id="secondary" d="M20,3H4A1,1,0,0,0,3,4V20a1,1,0,0,0,1,1H20a1,1,0,0,0,1-1V4A1,1,0,0,0,20,3ZM16,13.66V16H13.66L12,17.66,10.34,16H8V13.66L6.34,12,8,10.34V8h2.34L12,6.34,13.66,8H16v2.34L17.66,12Z" style="fill: #2ca9bc; stroke-width: 2;"/>

<line id="primary-upstroke" x1="12.05" y1="12" x2="11.95" y2="12" style="fill: none; stroke: #000000; stroke-linecap: round; stroke-linejoin: round; stroke-width: 2.5;"/>

<path id="primary" d="M17.66,12,16,13.66V16H13.66L12,17.66,10.34,16H8V13.66L6.34,12,8,10.34V8h2.34L12,6.34,13.66,8H16v2.34ZM21,20V4a1,1,0,0,0-1-1H4A1,1,0,0,0,3,4V20a1,1,0,0,0,1,1H20A1,1,0,0,0,21,20Z" style="fill: none; stroke: #000000; stroke-linecap: round; stroke-linejoin: round; stroke-width: 2;"/>

</g>

</svg>
